<svg width="153" height="117" viewBox="0 0 153 117" fill="none" xmlns="http://www.w3.org/2000/svg">
<path d="M87.6413 96.5996H64.945L67.4178 87.1284L67.9697 84.9925L69.0515 80.8286H83.5348L84.6166 84.9925L85.1686 87.1284L87.6413 96.5996Z" fill="#E5E9FF"/>
<path d="M85.1696 87.1285H67.4187L67.9707 84.9927H84.6176L85.1696 87.1285Z" fill="#CCD1EE"/>
<path d="M96.3412 99.21H56.2473C55.2758 99.21 54.5031 98.4549 54.5031 97.5057C54.5031 96.5564 55.2758 95.8013 56.2473 95.8013H96.3412C97.3126 95.8013 98.0854 96.5564 98.0854 97.5057C98.0854 98.4549 97.2906 99.21 96.3412 99.21Z" fill="white"/>
<path d="M113.296 40.6139V82.2743C113.296 83.2667 112.479 84.065 111.463 84.065H41.1223C40.1067 84.065 39.2898 83.2667 39.2898 82.2743V40.6139C39.2898 39.6215 40.1067 38.8232 41.1223 38.8232H111.463C112.479 38.8232 113.296 39.6215 113.296 40.6139Z" fill="#E5E9FF"/>
<path d="M111.795 40.1387H40.6373V76.8585H111.795V40.1387Z" fill="#B8B8F4"/>
<g opacity="0.3">
<path opacity="0.3" d="M104.751 40.1387H102.764V71.3786H104.751V40.1387Z" fill="#EEFAFF"/>
<path opacity="0.3" d="M109.809 40.1387H107.822V71.3786H109.809V40.1387Z" fill="#EEFAFF"/>
<path opacity="0.3" d="M44.1035 40.1401H42.1165V71.38H44.1035V40.1401Z" fill="#EEFAFF"/>
<path opacity="0.3" d="M49.1589 40.1387H47.1718V71.3786H49.1589V40.1387Z" fill="#EEFAFF"/>
<path opacity="0.3" d="M54.2141 40.1387H52.2271V71.3786H54.2141V40.1387Z" fill="#EEFAFF"/>
<path opacity="0.3" d="M59.2703 40.1387H57.2833V71.3786H59.2703V40.1387Z" fill="#EEFAFF"/>
<path opacity="0.3" d="M64.3272 40.1387H62.3401V71.3786H64.3272V40.1387Z" fill="#EEFAFF"/>
<path opacity="0.3" d="M69.3817 40.1387H67.3947V71.3786H69.3817V40.1387Z" fill="#EEFAFF"/>
<path opacity="0.3" d="M74.4163 40.1387H72.4293V71.3786H74.4163V40.1387Z" fill="#EEFAFF"/>
<path opacity="0.3" d="M79.4708 40.1387H77.4838V71.3786H79.4708V40.1387Z" fill="#EEFAFF"/>
<path opacity="0.3" d="M84.5279 40.1387H82.5408V71.3786H84.5279V40.1387Z" fill="#EEFAFF"/>
<path opacity="0.3" d="M89.5839 40.1387H87.5969V71.3786H89.5839V40.1387Z" fill="#EEFAFF"/>
<path opacity="0.3" d="M94.6402 40.1387H92.6531V71.3786H94.6402V40.1387Z" fill="#EEFAFF"/>
<path opacity="0.3" d="M99.6953 40.1387H97.7083V71.3786H99.6953V40.1387Z" fill="#EEFAFF"/>
</g>
<path d="M111.795 71.3784H40.6373V76.8799H111.795V71.3784Z" fill="#7272DD"/>
<path d="M76.2944 82.0148C75.345 82.0148 74.5944 81.2597 74.5944 80.3536C74.5944 79.4259 75.3671 78.6924 76.2944 78.6924C77.2437 78.6924 77.9944 79.4475 77.9944 80.3536C77.9944 81.2813 77.2217 82.0148 76.2944 82.0148Z" fill="#5730A0"/>
<path opacity="0.2" d="M81.526 84.0429H76.5142L89.6728 38.8228H94.6625L81.526 84.0429Z" fill="url(#paint0_linear)"/>
<path opacity="0.2" d="M94.0894 84.0429H83.4698L96.6284 38.8228H107.226L94.0894 84.0429Z" fill="url(#paint1_linear)"/>
<path d="M109.079 74.6584H50.6825C50.3734 74.6584 50.1306 74.4209 50.1306 74.1187C50.1306 73.8165 50.3734 73.5791 50.6825 73.5791H109.079C109.388 73.5791 109.631 73.8165 109.631 74.1187C109.631 74.4209 109.388 74.6584 109.079 74.6584Z" fill="#9494ED"/>
<path d="M79.8919 73.5791V74.6584H50.6825C50.3734 74.6584 50.1306 74.4209 50.1306 74.1187C50.1306 73.8165 50.3734 73.5791 50.6825 73.5791H79.8919Z" fill="#F98094"/>
<path d="M79.892 75.0892C80.4407 75.0892 80.8855 74.6545 80.8855 74.1183C80.8855 73.5821 80.4407 73.1475 79.892 73.1475C79.3433 73.1475 78.8985 73.5821 78.8985 74.1183C78.8985 74.6545 79.3433 75.0892 79.892 75.0892Z" fill="white"/>
<path d="M47.5514 74.6112C47.8328 73.4519 47.0988 72.2911 45.9118 72.0185C44.7249 71.7459 43.5345 72.4647 43.253 73.624C42.9716 74.7833 43.7056 75.9441 44.8926 76.2167C46.0795 76.4893 47.2699 75.7705 47.5514 74.6112Z" fill="white"/>
<path d="M45.0752 73.1479L46.2895 74.054C46.3337 74.0756 46.3337 74.1403 46.2895 74.1618L45.0752 75.068C45.031 75.1111 44.9648 75.068 44.9648 75.0033V73.1694C44.9427 73.1479 45.009 73.1047 45.0752 73.1479Z" fill="#854DCE"/>
<path d="M15.4018 94.5495C15.4018 94.5495 4.71599 80.4397 8.07187 77.4409C11.4057 74.4204 16.307 85.0351 15.4018 94.5495Z" fill="#20DE8E"/>
<path d="M9.0652 79.1239C10.5665 81.3676 11.825 83.7408 12.8406 86.2434C13.7458 88.4872 14.4523 90.7957 14.9821 93.1688C15.1146 93.7729 15.225 94.377 15.3575 94.9811C15.4679 95.5636 15.5562 96.1461 15.6666 96.7071C15.6886 96.7718 15.799 96.7718 15.799 96.6855C15.7107 95.6283 15.512 94.5712 15.2912 93.5356C15.0484 92.3922 14.7614 91.2487 14.4523 90.1268C13.7458 87.6889 12.8185 85.2942 11.6263 83.0288C10.9198 81.6481 10.1029 80.332 9.19767 79.0591C9.13144 78.9513 8.99897 79.0376 9.0652 79.1239Z" fill="white"/>
<path d="M8.77905 81.0441C9.22062 81.3462 9.68426 81.6482 10.1258 81.9718C10.3466 82.1444 10.5895 82.317 10.8102 82.4896C11.0089 82.6407 11.2076 82.8564 11.4505 82.9859C11.4947 83.0074 11.5609 82.9643 11.5388 82.8996C11.4064 82.6838 11.1635 82.5112 10.9648 82.3602C10.744 82.166 10.5232 81.9934 10.2804 81.8208C9.8388 81.4972 9.35308 81.1736 8.84529 80.9363C8.77905 80.8931 8.71282 81.001 8.77905 81.0441Z" fill="white"/>
<path d="M9.10983 81.8854C9.5514 82.1875 10.015 82.4895 10.4566 82.8131C10.6774 82.9857 10.9202 83.1583 11.141 83.3309C11.3397 83.482 11.5384 83.6977 11.7813 83.8272C11.8254 83.8487 11.8917 83.8056 11.8696 83.7409C11.7371 83.5251 11.4943 83.3525 11.2956 83.2015C11.0748 83.0073 10.854 82.8347 10.6111 82.6621C10.1696 82.3385 9.68387 82.0149 9.17607 81.7776C9.10983 81.7344 9.0436 81.8423 9.10983 81.8854Z" fill="white"/>
<path d="M17.5654 92.9533C17.5654 92.9533 27.8759 78.5846 24.4317 75.6505C21.0096 72.7164 16.3953 83.4605 17.5654 92.9533Z" fill="#20DE8E"/>
<path d="M23.3489 77.2691C21.7151 79.6639 20.4345 82.296 19.4631 85.0144C18.58 87.4307 17.9618 89.9549 17.5423 92.4791C17.4319 93.1048 17.3436 93.7304 17.2774 94.3777C17.2111 94.9818 17.1228 95.5858 17.1007 96.2115C17.1007 96.2762 17.2111 96.2978 17.2332 96.2331C17.4098 95.1328 17.5202 94.0325 17.6968 92.9538C17.8956 91.7672 18.1384 90.559 18.4254 89.394C19.0657 86.7619 19.9488 84.1945 21.0969 81.735C21.8034 80.2248 22.5982 78.7793 23.4813 77.377C23.5476 77.2691 23.4151 77.1828 23.3489 77.2691Z" fill="white"/>
<path d="M17.8744 86.0711C17.8523 86.7183 17.8965 87.344 17.9186 87.9912C17.9407 88.2717 17.9628 88.5737 17.9849 88.8542C18.007 89.1131 18.007 89.4151 18.0954 89.6524C18.1175 89.6956 18.2058 89.7172 18.2058 89.6524C18.25 89.3935 18.2058 89.1346 18.1837 88.8758C18.1616 88.5737 18.1396 88.2932 18.1175 87.9912C18.0733 87.344 18.0512 86.7183 17.9849 86.0711C18.007 85.9848 17.8744 85.9848 17.8744 86.0711Z" fill="#0E7C74"/>
<path d="M16.7698 87.8399C16.7698 87.8399 6.39311 73.5144 9.81522 70.5803C13.2373 67.6462 17.8958 78.3471 16.7698 87.8399Z" fill="#20DE8E"/>
<path d="M10.7847 72.2635C11.7782 73.8169 12.6834 75.4565 13.4561 77.1394C14.1847 78.7359 14.8029 80.3755 15.3107 82.0368C15.7743 83.5686 16.1496 85.1219 16.4587 86.6969C16.7237 88.0992 16.9445 89.5016 17.0769 90.9255C17.2094 92.1121 17.2756 93.2987 17.3419 94.4853C17.3419 94.6147 17.3639 94.7442 17.3639 94.8736C17.3639 94.9599 17.4964 94.9599 17.4964 94.8736C17.5185 93.7086 17.4523 92.5436 17.3419 91.3785C17.2094 89.9762 17.0328 88.5739 16.7899 87.1931C16.5029 85.6181 16.1496 84.0648 15.7081 82.533C15.2224 80.8717 14.6483 79.2537 13.9418 77.6787C13.1912 75.9743 12.3301 74.3347 11.3145 72.7813C11.1821 72.5871 11.0496 72.3714 10.9171 72.1772C10.8509 72.1125 10.7184 72.1988 10.7847 72.2635Z" fill="white"/>
<path d="M16.1523 92.0254C16.1523 92.0254 22.5328 83.4603 20.5016 81.648C18.4484 79.8573 15.5341 86.2865 16.1523 92.0254Z" fill="#04C674"/>
<path d="M19.7723 82.6189C18.4917 84.4096 17.5645 86.416 16.88 88.4871C16.306 90.2347 15.9528 92.0469 15.732 93.8808C15.6437 94.679 15.5554 95.4773 15.5995 96.2755C15.5995 96.3618 15.732 96.3618 15.732 96.2755C15.8203 95.5852 15.8424 94.8732 15.9307 94.1828C16.019 93.3414 16.1515 92.5216 16.306 91.6802C16.6813 89.7385 17.2775 87.8183 18.0943 85.9845C18.6021 84.8411 19.2203 83.7407 19.9047 82.6836C19.971 82.5973 19.8385 82.5326 19.7723 82.6189Z" fill="white"/>
<path d="M20.4146 91.6157L20.3705 91.9393L20.2601 92.6297L19.2445 99.3178H13.173L12.1574 92.6297L12.047 91.9393L12.0029 91.6157H20.4146Z" fill="url(#paint2_linear)"/>
<path d="M20.3709 91.9395L20.2605 92.6302H12.1578L12.0475 91.9395H20.3709Z" fill="#7878C4" fill-opacity="0.25"/>
<path d="M20.5463 92.2419H11.8696C11.5826 92.2419 11.3618 92.0261 11.3618 91.7455C11.3618 91.4649 11.5826 91.249 11.8696 91.249H20.5463C20.8333 91.249 21.0541 91.4649 21.0541 91.7455C21.0541 92.0261 20.8112 92.2419 20.5463 92.2419Z" fill="url(#paint3_linear)"/>
<path d="M24.2332 67.3445V71.7673C24.2332 71.832 24.2111 71.8967 24.1669 71.9399C24.1007 72.0262 24.0124 72.0693 23.902 72.0693H17.2786C17.1902 72.0693 17.124 72.0262 17.0578 71.983V67.8839C17.0578 67.7329 17.1902 67.6034 17.3448 67.6034H22.0033C22.1578 67.6034 22.2903 67.474 22.2903 67.3229C22.2903 67.1719 22.4228 67.0425 22.5773 67.0425H23.9903C24.1007 67.0856 24.2332 67.2151 24.2332 67.3445Z" fill="#DFC376"/>
<path d="M24.1676 71.9614C24.1014 72.0477 24.0131 72.0908 23.9027 72.0908H17.2793C17.191 72.0908 17.1247 72.0477 17.0585 72.0045C17.0364 71.983 17.0143 71.9398 16.9922 71.9182V71.8967L15.4909 68.5958C15.4247 68.4232 15.5351 68.229 15.7338 68.229H22.3131C22.4235 68.229 22.5118 68.2937 22.5559 68.38L23.9469 71.4652L24.1676 71.9614Z" fill="#FFE4A7"/>
<path d="M9.63754 99.4253H142.945" stroke="#183B56" stroke-width="1.4556" stroke-miterlimit="10" stroke-linecap="round" stroke-linejoin="round"/>
<path d="M55.6287 45.2091H23.2621C23.0855 45.2091 22.953 45.0797 22.953 44.9071V21.3693C22.953 20.8299 23.3946 20.3984 23.9465 20.3984H54.5027C55.3196 20.3984 55.9598 21.0457 55.9598 21.8224V44.8855C55.9598 45.0797 55.8053 45.2091 55.6287 45.2091Z" fill="#EDECFF"/>
<path d="M54.0613 44.0008H24.874C24.5207 44.0008 24.2558 43.7203 24.2558 43.3967V39.276C24.2558 38.9308 24.5428 38.6719 24.874 38.6719H54.0613C54.4145 38.6719 54.6795 38.9523 54.6795 39.276V43.3967C54.6795 43.7419 54.4145 44.0008 54.0613 44.0008Z" fill="white"/>
<path d="M54.2825 37.7873H24.6315C24.4108 37.7873 24.2341 37.6147 24.2341 37.399V36.0182C24.2341 35.8025 24.4108 35.6299 24.6315 35.6299H54.2825C54.5033 35.6299 54.6799 35.8025 54.6799 36.0182V37.399C54.6799 37.6147 54.5033 37.7873 54.2825 37.7873Z" fill="white"/>
<path opacity="0.31" d="M41.9619 24.584H24.5864C24.3215 24.584 24.1007 24.3682 24.1007 24.1091C24.1007 23.8501 24.3215 23.6343 24.5864 23.6343H41.9619C42.2269 23.6343 42.4476 23.8501 42.4476 24.1091C42.4476 24.3898 42.2269 24.584 41.9619 24.584Z" fill="white"/>
<path opacity="0.31" d="M41.9619 26.5689H24.5864C24.3215 26.5689 24.1007 26.353 24.1007 26.094C24.1007 25.835 24.3215 25.6191 24.5864 25.6191H41.9619C42.2268 25.6191 42.4476 25.835 42.4476 26.094C42.4476 26.353 42.2268 26.5689 41.9619 26.5689Z" fill="white"/>
<path opacity="0.31" d="M41.9619 28.5537H24.5864C24.3215 28.5537 24.1007 28.3379 24.1007 28.0789C24.1007 27.8199 24.3215 27.604 24.5864 27.604H41.9619C42.2268 27.604 42.4476 27.8199 42.4476 28.0789C42.4476 28.3379 42.2268 28.5537 41.9619 28.5537Z" fill="white"/>
<path opacity="0.31" d="M41.9619 30.5171H24.5864C24.3215 30.5171 24.1007 30.3013 24.1007 30.0423C24.1007 29.7832 24.3215 29.5674 24.5864 29.5674H41.9619C42.2268 29.5674 42.4476 29.7832 42.4476 30.0423C42.4476 30.3013 42.2268 30.5171 41.9619 30.5171Z" fill="white"/>
<path opacity="0.31" d="M41.9619 32.5015H24.5864C24.3215 32.5015 24.1007 32.2856 24.1007 32.0266C24.1007 31.7676 24.3215 31.5518 24.5864 31.5518H41.9619C42.2268 31.5518 42.4476 31.7676 42.4476 32.0266C42.4476 32.2856 42.2268 32.5015 41.9619 32.5015Z" fill="white"/>
<path opacity="0.31" d="M37.8774 34.4654H24.5864C24.3215 34.4654 24.1007 34.2495 24.1007 33.9905C24.1007 33.7315 24.3215 33.5156 24.5864 33.5156H37.8774C38.1424 33.5156 38.3632 33.7315 38.3632 33.9905C38.3852 34.2711 38.1645 34.4654 37.8774 34.4654Z" fill="white"/>
<path d="M55.6062 19.5781H23.2838C23.1072 19.5781 22.9526 19.7291 22.9526 19.9017V22.3181H55.9595V19.9233C55.9595 19.7291 55.8049 19.5781 55.6062 19.5781Z" fill="#A8AEFF"/>
<path d="M51.0604 20.9599C51.0604 21.1326 50.9278 21.2621 50.7511 21.2621C50.5743 21.2621 50.4418 21.1326 50.4418 20.9599C50.4418 20.7872 50.5743 20.6577 50.7511 20.6577C50.9278 20.6577 51.0604 20.7872 51.0604 20.9599Z" fill="white"/>
<path d="M52.5608 20.9594C52.5608 21.1321 52.4282 21.2616 52.2514 21.2616C52.0747 21.2616 51.9421 21.1321 51.9421 20.9594C51.9421 20.7867 52.0747 20.6572 52.2514 20.6572C52.4282 20.6572 52.5608 20.7867 52.5608 20.9594Z" fill="white"/>
<path d="M54.0845 20.9594C54.0845 21.1321 53.9519 21.2616 53.7752 21.2616C53.5984 21.2616 53.4659 21.1321 53.4659 20.9594C53.4659 20.7867 53.5984 20.6572 53.7752 20.6572C53.9519 20.6572 54.0845 20.7867 54.0845 20.9594Z" fill="white"/>
<path d="M54.6773 23.9579V34.1842C54.6773 34.3568 54.5448 34.4863 54.3682 34.4863H44.0356C43.859 34.4863 43.7265 34.3568 43.7265 34.1842V23.9579C43.7265 23.7853 43.859 23.6559 44.0356 23.6559H54.3682C54.5448 23.6343 54.6773 23.7853 54.6773 23.9579Z" fill="white"/>
<path d="M54.6763 32.2428V34.163C54.6763 34.3356 54.5438 34.465 54.3672 34.465H49.245L49.4658 32.2428L51.8723 29.6323L54.6763 32.2428Z" fill="#FFE4A7"/>
<path d="M53.2418 34.4647H44.0132C43.8365 34.4647 43.7041 34.3353 43.7041 34.1627V32.2426L47.3249 28.5317L53.2418 34.4647Z" fill="#93FFDC"/>
<path d="M53.2415 26.5687C53.2415 27.2591 52.6675 27.82 51.961 27.82C51.2545 27.82 50.6804 27.2591 50.6804 26.5687C50.6804 25.8783 51.2545 25.3174 51.961 25.3174C52.6675 25.3174 53.2415 25.8783 53.2415 26.5687Z" fill="#F49587"/>
<path d="M70.2198 68.121L66.7756 62.339L61.2781 62.7705L59.7768 64.1081C59.5781 63.8924 59.6223 63.9356 59.4677 63.7845C58.3196 62.5116 55.604 60.4189 53.4625 58.2399C51.0339 55.7804 49.2014 53.3209 49.2014 53.3209L48.7598 53.5366C48.7598 53.3209 48.7598 53.1699 48.7598 53.1699L46.839 50.6456L44.4987 50.4946L42.7545 52.5658L42.8429 53.6661C42.8429 53.6661 42.8649 55.3705 44.2338 55.5431C44.6312 55.5862 45.6689 55.7804 46 55.9961C46.9273 56.6218 47.678 57.4848 48.1858 58.4556C49.7092 61.3898 51.9611 65.5752 54.0586 69.1782C54.0586 69.1782 54.1469 69.3292 54.3014 69.5665C55.03 70.71 57.3041 73.9893 59.1365 74.1403C61.3885 74.3129 70.2198 68.121 70.2198 68.121Z" fill="#F7B59C"/>
<path d="M78.0795 37.6147C78.0795 37.6147 78.8081 36.536 79.8236 36.2771C80.8392 36.0182 78.7197 38.5856 78.7197 38.5856C78.7197 38.5856 78.1457 38.8229 78.0795 38.8013C78.0133 38.7366 78.0795 37.6147 78.0795 37.6147Z" fill="#01263A"/>
<path d="M96.9582 29.9126C96.9582 29.9126 104.178 32.4584 95.5894 39.729L94.2868 39.3407L96.9582 29.9126Z" fill="#003051"/>
<path d="M78.6765 51.8541C82.1207 55.9533 86.7351 56.6221 86.7351 56.6221C94.7494 56.4711 96.1183 52.1562 96.1183 52.1562L91.6364 51.1853C91.6364 51.1853 91.5039 45.4897 93.9767 41.9514C95.8313 42.2966 96.7144 39.4272 96.2066 38.6721C95.6546 37.8307 95.0364 37.9386 95.0364 37.9386C94.5066 38.4995 94.0209 39.8156 93.8001 40.4628L82.6506 46.0937C82.6506 46.0937 82.7831 46.3742 82.9597 46.8704C83.1363 47.4098 83.335 48.208 83.4675 49.222C83.5337 49.8477 83.5779 50.5597 83.5558 51.3579L78.6765 51.8541ZM92.9832 41.7357C93.226 41.3473 93.4689 40.9374 93.7559 40.5491C93.6676 40.8296 93.5793 41.0669 93.5351 41.2826C93.226 41.5199 93.0053 41.7141 92.9832 41.7357Z" fill="#F7B59C"/>
<path d="M82.938 46.9136C83.1146 47.4529 83.3133 48.2512 83.4458 49.2652C92.7407 47.2803 93.0056 42.3613 93.0056 42.3613L88.2367 44.2599L82.938 46.9136Z" fill="#ED9780"/>
<path d="M81.4591 26.8491C81.4591 26.8491 79.4279 30.5168 80.8188 32.9547L84.0422 28.8771" fill="#01263A"/>
<path d="M77.9043 45.5328C80.0459 48.8337 87.8836 48.769 91.5707 44.0226C95.2577 39.2978 95.8538 33.861 94.0213 30.517C93.0058 28.6615 90.5551 27.5828 88.1486 27.4102C87.5083 27.3671 86.868 27.4102 86.2278 27.5397C84.7706 27.8633 83.4238 28.6615 82.4303 29.805C82.342 29.9129 82.2537 30.0207 82.1654 30.1286L81.5914 30.8621C81.5251 30.9484 81.4589 31.0563 81.3706 31.1426C81.0173 31.6604 80.7303 32.2213 80.5537 32.8254C80.4433 33.1275 80.377 33.4511 80.3329 33.7747C80.2004 34.6377 79.8472 35.7811 79.0082 36.7951C77.4186 38.7368 75.7848 42.2319 77.9043 45.5328Z" fill="#F7B59C"/>
<path d="M82.4306 29.805C82.9604 30.0207 83.8215 30.3012 84.9254 30.4306C86.802 30.6464 90.5774 31.0131 91.8358 32.3508C91.8358 32.3508 92.3657 32.8254 92.6748 33.8825C92.9839 34.9397 91.9683 30.2796 91.9683 30.2796L86.228 27.5181C84.7709 27.8633 83.4241 28.6615 82.4306 29.805Z" fill="#ED9780"/>
<path d="M93.3808 35.3711C93.3808 35.3711 93.3588 40.1606 90.7756 41.4335C88.1925 42.7064 86.4042 41.1315 85.234 40.3117C84.5496 39.837 84.3067 41.0452 84.3067 41.0452C84.3067 41.0452 85.6535 43.2458 86.3379 43.2458C87.0223 43.2458 89.738 43.2026 89.9367 43.0732C90.1354 42.9437 91.7029 42.2102 91.7029 42.2102C91.7029 42.2102 92.7627 40.4195 92.851 40.2254C92.9172 40.0312 94.1536 38.0032 94.0873 37.7443C94.0211 37.4854 94.0432 35.8026 94.0432 35.8026L93.3808 35.3711Z" fill="#ED9780"/>
<path d="M81.5245 20.5925C80.9063 20.7004 80.3544 21.9301 80.1115 22.4911C79.7583 23.2893 79.0738 25.1663 80.6193 27.2806C82.3856 29.6754 86.2051 29.6754 89.0311 30.3873C91.548 31.013 92.8285 32.6095 92.6519 34.4218C92.6077 34.918 92.7844 35.4142 93.1155 35.781L93.1597 35.8457C93.4688 36.1909 93.6013 36.6655 93.5129 37.1186C93.2259 38.5425 92.2986 41.4982 90.0025 42.1455C88.0376 42.7064 87.2207 41.9944 86.8895 41.7571C85.7414 40.8941 85.1012 39.9664 82.8492 38.8877C81.6791 38.3268 80.4427 38.4131 78.8089 38.1757C78.4998 38.1326 78.0803 38.0894 78.0362 37.6148C78.0362 37.6148 74.4816 41.6924 76.9764 45.9426C77.5946 46.9997 78.6323 47.7764 79.8687 48.0784C81.5466 48.4668 84.3284 48.7041 87.5518 47.2802C92.8506 44.9501 94.5948 39.5997 95.3013 37.9169C96.0078 36.234 97.8403 31.725 96.4714 27.5611C95.6324 24.9937 92.961 22.8147 88.5895 22.6205C85.5869 22.4695 83.3349 20.2473 81.5245 20.5925Z" fill="#003051"/>
<path d="M84.9903 41.412C84.9903 41.412 84.924 41.5415 84.7695 41.7356C84.2838 42.3397 83.0474 43.5047 80.9058 42.4692C80.2435 42.1455 79.8902 41.7141 79.7357 41.2826C79.4045 40.3764 79.8902 39.4487 79.8902 39.4487C79.8902 39.4487 80.685 39.9665 81.7669 40.4627C82.6941 40.8942 83.8422 41.3041 84.8799 41.3904C84.924 41.412 84.9461 41.412 84.9903 41.412Z" fill="#8D1612"/>
<path d="M84.9233 41.2174L84.8571 41.4116L84.7467 41.7568C84.261 42.3609 83.0246 43.5259 80.883 42.4903C80.2207 42.1667 79.8674 41.7352 79.7129 41.3037C80.596 40.4839 81.4791 40.4839 81.4791 40.4839H82.9142L84.9233 41.2174Z" fill="#FF4C2F"/>
<path d="M80.0017 39.4702C80.0017 39.4702 79.4055 40.2037 79.4055 40.3979C79.4055 40.7215 83.3576 42.5338 83.5563 42.5554C83.777 42.5769 84.1303 41.8218 84.1303 41.8218L82.5407 40.8941" fill="#FAFFF7"/>
<path d="M80.198 31.6607C80.1097 31.8765 80.1759 31.6823 80.0876 31.9628C79.9993 32.2648 80.198 32.5237 80.485 32.6316C81.2136 32.8905 83.4656 33.7535 83.4656 33.7535C83.7085 33.8829 83.7085 33.6456 83.6202 33.4946C83.3331 32.8905 83.024 32.1354 80.9045 31.445C80.6175 31.3371 80.3084 31.3803 80.198 31.6607Z" fill="#003051"/>
<path d="M90.7304 35.8024C90.6421 36.0182 90.7304 35.824 90.5759 36.0829C90.4213 36.3418 90.0902 36.3849 89.8032 36.2555C89.0967 35.9103 86.9109 34.9179 86.9109 34.9179C86.646 34.8531 86.8226 34.6805 86.9992 34.6158C87.6395 34.4001 88.4122 34.098 90.3993 35.1336C90.6642 35.2631 90.8408 35.5219 90.7304 35.8024Z" fill="#003051"/>
<path d="M79.0746 39.5997C79.0746 39.5997 80.311 41.1531 82.0331 40.6784C82.0331 40.6784 82.0552 41.9513 84.9474 42.3612L85.1903 41.3688C85.1903 41.3688 83.3136 40.398 83.2032 40.4627C83.0708 40.5274 81.3045 40.0096 80.9734 39.9449C80.6422 39.8802 79.472 38.9956 79.472 38.9956L79.0746 39.5997Z" fill="#003051"/>
<path d="M95.3008 38.9311C95.3008 38.9311 94.241 40.3981 94.4177 41.0454C94.4177 41.0454 94.4618 40.6786 95.4332 40.6786C95.4332 40.6786 96.0514 39.8156 95.7423 39.19C95.5657 38.8663 95.3008 38.9311 95.3008 38.9311Z" fill="#ED9780"/>
<path d="M86.9994 36.2773C86.6682 36.7951 86.5357 37.3776 87.0656 37.7875C87.2423 37.917 87.5293 37.8738 87.6838 37.7228C87.9488 37.4639 87.9929 37.3345 88.1475 37.054C88.5449 36.3636 87.4189 35.5869 86.9994 36.2773Z" fill="#452E17"/>
<path d="M87.0895 36.5797C87.0011 36.7092 86.9569 36.8603 87.1116 36.9682C87.1558 37.0114 87.2441 36.9898 87.2662 36.9466C87.3325 36.8819 87.3104 36.8171 87.3546 36.7308C87.4651 36.5581 87.2 36.407 87.0895 36.5797Z" fill="white"/>
<path d="M81.2383 34.3572C80.9734 34.7671 80.8409 35.2202 81.2604 35.5654C81.3929 35.6733 81.6357 35.6301 81.7461 35.5223C81.9669 35.3281 81.989 35.1771 82.1214 34.9397C82.4305 34.4004 81.5916 33.8394 81.2383 34.3572Z" fill="#452E17"/>
<path d="M81.3046 34.6165C81.2383 34.7244 81.1941 34.8323 81.3046 34.9403C81.3488 34.9619 81.393 34.9619 81.4371 34.9403C81.5034 34.8971 81.4813 34.8323 81.5255 34.7676C81.5918 34.5949 81.393 34.4654 81.3046 34.6165Z" fill="white"/>
<path d="M49.2904 53.4075C49.2904 53.4075 46.5306 47.6039 44.5877 46.2231C44.5877 46.2231 43.9033 46.331 43.9916 47.1293C44.0799 47.9275 45.2501 48.92 45.2942 49.6751C45.3384 50.4302 44.8306 50.3223 44.1903 50.1929C43.5501 50.0418 38.8253 47.4745 38.3617 47.7118C37.876 47.9491 38.3838 48.4237 38.7149 48.6826C39.0461 48.9415 41.563 50.4949 41.563 50.4949C41.563 50.4949 37.0149 48.057 36.6837 48.8984C36.463 49.4377 40.702 51.5736 40.702 51.5736C40.702 51.5736 37.0591 49.5888 36.9045 50.3223C36.7721 50.948 39.8409 52.3719 39.8409 52.3719C39.8409 52.3719 37.9422 51.401 37.7877 51.8325C37.611 52.3719 40.2383 53.7742 41.0111 54.2704C41.7838 54.7667 43.6384 55.5433 44.389 55.5218C45.1397 55.5002 45.6696 55.4355 46.089 55.8454" fill="#F7B59C"/>
<path d="M99.9381 65.8558L101.462 71.3789H73.7093C73.7093 69.9549 73.621 68.2506 73.5106 66.5677L67.5495 70.1491C65.6066 66.3736 61.3455 62.7706 61.2793 62.7706C65.43 58.8009 70.508 54.2918 73.2677 52.4149C74.5924 51.5087 80.9509 51.1635 81.7899 51.0772C82.5185 51.0125 83.1367 50.581 83.4899 49.9769C83.4899 49.9769 84.373 51.9834 85.8302 52.7169C86.2276 52.8679 86.2497 55.1548 86.7575 55.1333C86.912 55.1333 87.9718 52.7385 88.1042 52.7169C88.1042 52.7169 89.8042 52.4364 91.703 49.6533L92.0341 50.1064C92.3432 50.5163 92.7848 50.8183 93.2926 50.9262C94.264 51.142 95.9861 51.595 97.6641 52.2638C100.049 53.1915 102.654 57.6575 102.654 57.6575L103.25 65.8558L99.7615 65.7048L99.9381 65.8558Z" fill="white"/>
<path d="M97.3769 64.4536L98.0393 71.379H101.461L100.843 66.8484L97.3769 64.4536Z" fill="#F4F4F4"/>
<path d="M107.577 63.353L110.668 71.3787H101.461L99.9378 68.121" fill="#F7B59C"/>
<path d="M94.0878 51.1201C94.0878 51.1201 101.153 52.1125 103.272 54.1837C104.332 55.1977 105.193 57.161 106.518 60.1167C108.681 64.9278 109.697 67.5599 109.697 67.5599C109.697 67.5599 104.354 71.1844 98.9892 70.1057L96.3619 62.7056L94.0878 51.1201Z" fill="white"/>
<path d="M83.6198 35.5594C84.0811 34.4436 83.6211 33.2097 82.5922 32.8036C81.5634 32.3974 80.3554 32.9727 79.8941 34.0885C79.4327 35.2043 79.8928 36.4382 80.9216 36.8443C81.9504 37.2505 83.1584 36.6752 83.6198 35.5594Z" stroke="white" stroke-width="0.7278" stroke-miterlimit="10"/>
<path d="M89.0595 37.7313C89.5208 36.6154 89.0607 35.3816 88.0319 34.9754C87.0031 34.5692 85.7951 35.1445 85.3338 36.2604C84.8724 37.3762 85.3325 38.61 86.3613 39.0162C87.3901 39.4224 88.5981 38.8471 89.0595 37.7313Z" stroke="white" stroke-width="0.7278" stroke-miterlimit="10"/>
<path d="M83.6888 35.4139C83.6888 35.4139 84.9031 35.2844 85.3446 36.2558" stroke="white" stroke-width="0.7278" stroke-miterlimit="10"/>
<path d="M89.1406 37.5288L95.3225 37.8958" stroke="white" stroke-width="0.7278" stroke-miterlimit="10" stroke-linecap="round"/>
<path d="M75.2327 71.3789H73.7093C73.7093 69.955 73.6209 68.2506 73.5106 66.5678L74.7469 65.899C74.7469 65.8774 75.2547 69.8471 75.2327 71.3789Z" fill="#F4F4F4"/>
<path d="M84.3049 36.0181C84.3049 36.0181 82.6932 37.2262 82.5166 37.8735C82.4062 38.2402 83.0685 38.6717 83.0685 38.6717" stroke="#ED9780" stroke-width="0.7278" stroke-miterlimit="10" stroke-linecap="round"/>
<path d="M39.9077 78.4548C39.9077 78.4548 40.5701 80.6985 38.0973 80.6985C37.7441 80.6985 37.4571 80.6122 37.1921 80.4827C36.2869 80.0513 36.0661 78.541 36.0661 78.541C36.8389 78.3469 36.5739 77.2466 36.5739 77.2466L39.3337 77.3113C39.3337 77.3113 39.2012 78.0233 39.3999 78.2174C39.7311 78.5842 39.9077 78.4548 39.9077 78.4548Z" fill="#F7B59C"/>
<path d="M36.1998 78.3903C36.1998 78.3903 36.0452 80.3967 37.966 80.3967C39.7102 80.3967 39.7323 79.0807 39.5998 78.3472C41.5869 78.5198 43.7726 79.2964 44.8765 80.2026C46.2012 81.8638 47.1064 84.4096 47.1064 84.4096C47.1064 84.4096 46.4882 84.6901 45.87 84.8842C45.2297 85.0784 44.744 85.3589 44.744 85.3589L43.9713 95.6499H31.7842L31.5855 85.3589C31.5855 85.3589 30.7906 85.1647 30.1283 84.9705C29.1789 84.6685 28.8257 84.3665 28.8257 84.3665C28.8257 84.3665 29.5543 82.2521 30.6582 80.5262C31.7842 79.4906 33.8816 78.6492 36.1998 78.3903Z" fill="#183B56"/>
<path d="M29.0453 84.4526C29.0453 84.4526 27.8752 88.4655 27.9856 90.3856C28.0959 92.3058 32.7324 94.981 32.7324 94.981L33.3285 92.953C33.3285 92.953 31.4077 92.1547 31.1207 90.6877C30.8336 89.2206 32.4453 85.5529 32.4453 85.5529C32.4453 85.5529 31.7388 85.3588 30.7453 85.0783C29.818 84.841 29.0453 84.4526 29.0453 84.4526Z" fill="#F7B59C"/>
<path d="M46.9733 84.4526C46.9733 84.4526 48.1434 88.4655 48.033 90.3856C47.9226 92.3058 43.2862 94.981 43.2862 94.981L42.6901 92.953C42.6901 92.953 44.6109 92.1547 44.8979 90.6877C45.1849 89.2206 43.507 85.4666 43.507 85.4666C43.507 85.4666 44.2797 85.294 45.2512 85.0352C46.2005 84.7978 46.9733 84.4526 46.9733 84.4526Z" fill="#F7B59C"/>
<path d="M45.4497 95.8006H30.3924L30.0612 86.5882C30.0612 86.3509 30.2379 86.1567 30.5028 86.1567H45.3835C45.6264 86.1567 45.8251 86.3509 45.8251 86.5882L45.4497 95.8006Z" fill="white"/>
<path d="M44.2572 97.9153C44.2572 97.9153 44.5883 97.5486 45.3169 97.527C45.8026 97.5054 47.1715 97.8074 47.8117 97.8074C48.4741 97.8074 49.1364 97.6564 49.5118 98.1958C50.152 99.1235 49.865 99.9433 48.8053 100.073C48.2312 100.137 47.7455 99.7707 46.8182 99.857C45.913 99.9433 44.5221 99.6413 44.1247 99.0156" fill="#4C4051"/>
<path d="M42.9997 97.4839C42.9997 97.4839 43.7283 97.6781 44.1919 97.7212C44.6776 97.7428 45.7374 97.6349 46.2231 97.937C46.753 98.2606 46.5543 99.1451 46.2231 99.3393C45.6932 99.6629 45.2516 99.4903 44.2581 99.1883C43.2646 98.8862 42.1165 98.9941 42.1165 98.9941" fill="#F7B59C"/>
<path d="M44.4565 99.5762C44.4565 99.5762 33.2849 99.382 30.3265 98.9936C29.068 98.8211 27.8979 98.5622 26.9264 98.1738C25.5797 97.3971 25.0939 95.5417 25.9991 93.8373C26.4186 93.0391 27.7212 93.1901 27.9199 93.1901C27.9641 93.1901 27.9862 93.1901 27.9862 93.1901C31.607 93.3195 34.8966 94.2257 38.6278 95.6927C42.0941 97.0519 44.7435 97.6129 44.7435 97.6129C44.9422 98.9936 44.4565 99.5762 44.4565 99.5762Z" fill="#0052A3"/>
<path d="M47.1508 98.3898C47.1508 98.3898 46.8638 98.2388 46.7534 98.4113C46.6651 98.5839 46.5988 99.3175 46.643 99.4253C46.7313 99.6195 47.1729 99.5548 47.1729 99.5548L47.5261 98.6271L47.1508 98.3898Z" fill="#4C4051"/>
<path d="M31.8281 97.9149C31.8281 97.9149 31.4969 97.5265 30.7242 97.5049C30.2164 97.4834 28.8034 97.807 28.119 97.7854C27.4346 97.7638 26.7722 97.6344 26.3306 98.0659C25.5138 98.9073 26.2644 99.9644 27.3904 100.094C27.9865 100.159 28.1631 99.835 29.1346 99.9213C30.0619 100.008 31.519 99.7055 31.9385 99.0583" fill="#594A5F"/>
<path d="M33.1312 97.4839C33.1312 97.4839 32.3805 97.6996 31.8727 97.7212C31.3649 97.7428 30.261 97.6133 29.7532 97.937C29.2013 98.2606 29.4 99.1883 29.7532 99.404C30.3052 99.7492 30.7688 99.5766 31.7844 99.2746C32.8 98.9725 34.0143 99.0804 34.0143 99.0804" fill="#F7B59C"/>
<path d="M49.2245 98.1524C48.2089 98.5839 46.9505 98.8643 45.6258 99.0369C42.6453 99.4037 31.4737 99.5763 31.4737 99.5763C31.4737 99.5763 30.988 98.9938 31.1867 97.5914C31.1867 97.5914 33.8361 97.0305 37.3244 95.6929C40.9673 94.2905 44.2128 93.406 47.7232 93.2334C48.4076 93.2981 49.2025 93.6002 49.7765 94.7436C50.5271 96.2754 49.9531 97.8719 49.2245 98.1524Z" fill="#0058C4"/>
<path d="M29.443 98.0446C29.443 98.0446 29.8183 97.8504 29.9508 98.0662C30.0833 98.2819 30.1495 99.2312 30.0833 99.3822C29.9729 99.6411 29.4209 99.5548 29.4209 99.5548L28.9794 98.3682L29.443 98.0446Z" fill="#594A5F"/>
<path d="M41.1661 72.0255C41.1661 72.0255 42.2038 71.9177 41.0337 74.5497C40.5921 75.5422 40.4376 75.4775 40.4376 75.5206C40.4376 75.5638 40.0402 75.197 40.0402 75.0244C40.0402 74.8518 40.0622 73.5573 40.0843 73.4926C40.0843 73.4279 41.1661 72.0255 41.1661 72.0255Z" fill="#2C1E56"/>
<path d="M35.0729 72.6298C35.0729 72.6298 34.2781 72.4141 34.5872 73.9674C34.808 75.0246 35.382 75.4561 35.382 75.4992C35.382 75.5424 35.7794 75.1756 35.7794 75.003C35.7794 74.8304 35.7574 73.536 35.7353 73.4712C35.7353 73.4281 35.0729 72.6298 35.0729 72.6298Z" fill="#2C1E56"/>
<path d="M35.2954 74.5931C35.2954 74.5931 34.964 74.2694 34.8535 74.7009C34.7652 75.1324 35.1187 76.2328 35.5605 75.8013" fill="#E5A18C"/>
<path d="M40.5264 74.5931C40.5264 74.5931 40.8578 74.2694 40.9683 74.7009C41.0567 75.1324 40.7032 76.2328 40.2613 75.8013" fill="#E5A18C"/>
<path d="M38.0103 77.9801C38.0103 77.9801 38.0103 77.9801 37.9883 77.9801C37.6792 78.0017 34.8753 78.0233 35.2285 73.0396H40.5714C40.5714 73.0611 41.2117 77.6781 38.0103 77.9801Z" fill="#F7B59C"/>
<path d="M39.8423 70.2565C40.8579 70.5369 41.4982 71.7883 40.9904 72.7807C40.4826 73.7731 38.8929 74.3341 37.1046 73.9673C36.0449 73.7516 35.7137 73.3416 35.0734 73.3632C34.5877 73.3848 34.1461 73.1043 33.9695 72.6512C33.7487 72.0472 33.5942 71.2273 34.2565 70.7527C36.0228 71.2273 38.3189 69.825 39.8423 70.2565Z" fill="#2C1E56"/>
<path d="M38.7816 90.6876C38.7816 91.2054 38.34 91.6369 37.8102 91.6369C37.2803 91.6369 36.8387 91.2054 36.8387 90.6876C36.8387 90.1698 37.2803 89.7383 37.8102 89.7383C38.3621 89.7383 38.7816 90.1482 38.7816 90.6876Z" fill="#D1DEFF"/>
<path d="M36.5961 77.5704C36.5961 77.5704 36.7506 77.6783 36.9935 77.7647C37.2364 77.851 37.5896 77.9374 37.9208 77.9158C38.0974 77.9158 38.2741 77.8726 38.4286 77.851C38.5831 77.8078 38.7377 77.7647 38.8702 77.7215C39.113 77.6352 39.2676 77.5488 39.2676 77.5488C39.2676 77.5488 39.1351 77.6783 38.8922 77.7863C38.7819 77.851 38.6273 77.9158 38.4507 77.9589C38.2961 78.0021 38.0974 78.0453 37.9208 78.0453C37.7442 78.0453 37.5455 78.0453 37.3909 78.0021C37.2143 77.9589 37.0818 77.8942 36.9494 77.8294C36.7286 77.7215 36.5961 77.5704 36.5961 77.5704Z" fill="#EAA18B"/>
<path d="M36.7954 75.1541C36.8175 75.3268 36.8396 75.5426 36.6407 75.5642C36.5524 75.5858 36.464 75.4995 36.4419 75.4563C36.3977 75.3484 36.4198 75.3052 36.4198 75.1973C36.3756 74.9814 36.7512 74.9383 36.7954 75.1541Z" fill="#452E17"/>
<path d="M36.6839 75.3052C36.6839 75.3484 36.6839 75.3915 36.6395 75.4131C36.6173 75.4131 36.5952 75.4131 36.5952 75.3915C36.573 75.37 36.5952 75.3484 36.5952 75.3268C36.5952 75.262 36.6839 75.2405 36.6839 75.3052Z" fill="white"/>
<path d="M39.2476 75.1541C39.2697 75.3268 39.2918 75.5426 39.0929 75.5642C39.0045 75.5858 38.9162 75.4995 38.8941 75.4563C38.8499 75.3484 38.872 75.3052 38.872 75.1973C38.8278 74.9814 39.2034 74.9383 39.2476 75.1541Z" fill="#452E17"/>
<path d="M39.1366 75.3052C39.1366 75.3484 39.1366 75.3915 39.0922 75.4131C39.0701 75.4131 39.0479 75.4131 39.0479 75.3915C39.0257 75.37 39.0479 75.3484 39.0479 75.3268C39.0479 75.262 39.1366 75.2405 39.1366 75.3052Z" fill="white"/>
<path d="M39.5327 74.5072C39.5548 74.5504 39.5327 74.5072 39.5548 74.572C39.5548 74.6368 39.5106 74.6799 39.4223 74.6799C39.2236 74.6799 38.6054 74.7015 38.6054 74.7015C38.5392 74.7015 38.5392 74.6583 38.5833 74.6368C38.6937 74.5504 38.8041 74.4209 39.3781 74.4209C39.4223 74.4209 39.5106 74.4425 39.5327 74.5072Z" fill="#003051"/>
<path d="M36.1103 74.5072C36.0882 74.5504 36.1103 74.5072 36.0882 74.572C36.0882 74.6368 36.1324 74.6799 36.2207 74.6799C36.4194 74.6799 37.0376 74.7015 37.0376 74.7015C37.1038 74.7015 37.1038 74.6583 37.0596 74.6368C36.9492 74.5504 36.8388 74.4209 36.2648 74.4209C36.1986 74.4209 36.1324 74.4425 36.1103 74.5072Z" fill="#003051"/>
<path d="M37.8336 75.478C37.8336 75.478 37.5906 75.9745 37.679 76.0824C37.7452 76.1903 38.0324 76.1903 38.0324 76.1903" stroke="#EAA18B" stroke-width="0.3639" stroke-miterlimit="10" stroke-linecap="round"/>
<path d="M37.1945 76.9231C37.1945 76.9231 37.923 77.3547 38.5854 76.8799" stroke="#C9806F" stroke-width="0.3639" stroke-miterlimit="10" stroke-linecap="round"/>
<path d="M94.7062 98.6719V79.2333C94.7062 79.1901 94.6621 79.147 94.6179 79.147H94.1322C94.0881 79.147 94.0439 79.1901 94.0439 79.2333V98.6719C93.9114 98.6935 93.8231 98.8014 93.8231 98.9308C93.8231 99.0818 93.9556 99.2113 94.1101 99.2113H94.6179C94.7725 99.2113 94.9049 99.0818 94.9049 98.9308C94.927 98.8014 94.8166 98.6935 94.7062 98.6719Z" fill="white"/>
<path d="M134.158 98.6489L134.136 79.1455H133.495V98.6489H133.473C133.363 98.6489 133.275 98.7352 133.275 98.843V98.9941C133.275 99.1019 133.363 99.1882 133.473 99.1882H134.158C134.268 99.1882 134.356 99.1019 134.356 98.9941V98.843C134.356 98.7352 134.268 98.6489 134.158 98.6489Z" fill="white"/>
<path d="M139.172 79.3393H88.4363C88.1051 79.3393 87.8401 79.0804 87.8401 78.7568C87.8401 78.4332 88.1051 78.1743 88.4363 78.1743H139.172C139.503 78.1743 139.768 78.4332 139.768 78.7568C139.768 79.0804 139.503 79.3393 139.172 79.3393Z" fill="#9999F1"/>
<path d="M115.482 77.5273H100.844L97.9296 68.6171C97.7751 68.164 98.1283 67.7109 98.6141 67.7109H111.773C112.082 67.7109 112.347 67.9051 112.457 68.1856L115.482 77.5273Z" fill="#5146AF"/>
<path d="M115.194 77.5265H101.329L98.415 68.4868C98.3709 68.3142 98.4812 68.1416 98.6579 68.1416H111.949C112.081 68.1416 112.192 68.2279 112.236 68.3573L115.194 77.5265Z" fill="white"/>
<path d="M106.451 69.5446H100.07C99.982 69.5446 99.8937 69.4798 99.8937 69.3719C99.8937 69.2856 99.9599 69.1992 100.07 69.1992H106.451C106.539 69.1992 106.628 69.264 106.628 69.3719C106.628 69.4798 106.539 69.5446 106.451 69.5446Z" fill="#C2E0F2"/>
<path d="M107.445 70.3209H100.314C100.225 70.3209 100.137 70.2562 100.137 70.1483C100.137 70.0619 100.203 69.9756 100.314 69.9756H107.445C107.533 69.9756 107.622 70.0403 107.622 70.1483C107.599 70.2562 107.533 70.3209 107.445 70.3209Z" fill="#C2E0F2"/>
<path d="M106.783 71.1198H100.579C100.491 71.1198 100.403 71.055 100.403 70.9471C100.403 70.8607 100.469 70.7744 100.579 70.7744H106.783C106.872 70.7744 106.96 70.8392 106.96 70.9471C106.96 71.0334 106.872 71.1198 106.783 71.1198Z" fill="#C2E0F2"/>
<path d="M105.745 71.8961H100.821C100.733 71.8961 100.645 71.8314 100.645 71.7235C100.645 71.6371 100.711 71.5508 100.821 71.5508H105.745C105.833 71.5508 105.921 71.6155 105.921 71.7235C105.921 71.8098 105.833 71.8961 105.745 71.8961Z" fill="#C2E0F2"/>
<path d="M108.217 72.6725H101.085C100.997 72.6725 100.909 72.6078 100.909 72.4998C100.909 72.4135 100.975 72.3271 101.085 72.3271H108.217C108.305 72.3271 108.393 72.3919 108.393 72.4998C108.371 72.5862 108.305 72.6725 108.217 72.6725Z" fill="#C2E0F2"/>
<path d="M107.557 73.4499H101.353C101.264 73.4499 101.176 73.3851 101.176 73.2772C101.176 73.1908 101.242 73.1045 101.353 73.1045H107.557C107.645 73.1045 107.733 73.1693 107.733 73.2772C107.711 73.3635 107.645 73.4499 107.557 73.4499Z" fill="#C2E0F2"/>
<path d="M108.968 75.0026H101.837C101.748 75.0026 101.66 74.9378 101.66 74.8299C101.66 74.7436 101.726 74.6572 101.837 74.6572H108.968C109.056 74.6572 109.145 74.722 109.145 74.8299C109.145 74.9163 109.056 75.0026 108.968 75.0026Z" fill="#C2E0F2"/>
<path d="M109.234 75.7799H102.103C102.014 75.7799 101.926 75.7152 101.926 75.6072C101.926 75.5209 101.992 75.4346 102.103 75.4346H109.234C109.322 75.4346 109.411 75.4993 109.411 75.6072C109.411 75.6936 109.322 75.7799 109.234 75.7799Z" fill="#C2E0F2"/>
<path d="M113.009 75.7793H110.713C110.492 75.7793 110.316 75.6499 110.25 75.4341L108.329 69.5012C108.218 69.1991 108.461 68.8755 108.792 68.8755H111.089C111.309 68.8755 111.486 69.0049 111.552 69.2207L113.473 75.1537C113.583 75.4557 113.34 75.7793 113.009 75.7793Z" fill="#C2E0F2"/>
<path d="M116.718 78.1746H100.8C100.535 78.1746 100.336 77.9588 100.336 77.7213C100.336 77.4623 100.557 77.2681 100.8 77.2681H116.718C116.983 77.2681 117.182 77.4839 117.182 77.7213C117.182 77.9804 116.961 78.1746 116.718 78.1746Z" fill="#5146AF"/>
<path d="M118.286 66.2863C118.175 66.2863 118.043 66.2215 117.977 66.1137L117.513 65.3154C117.469 65.2291 117.447 65.1428 117.491 65.0565C117.513 64.9702 117.579 64.8839 117.668 64.8408L118.948 64.172C119.125 64.0857 119.323 64.1504 119.412 64.3014L119.853 65.0781C119.897 65.1644 119.897 65.2507 119.875 65.337C119.853 65.4233 119.787 65.488 119.699 65.5311L118.44 66.2C118.396 66.2647 118.352 66.2863 118.286 66.2863ZM119.103 64.3014C119.081 64.3014 119.036 64.3014 119.014 64.323L117.734 64.9918C117.69 65.0134 117.645 65.0565 117.645 65.0997C117.623 65.1428 117.645 65.2075 117.668 65.2507L118.131 66.0489C118.175 66.1352 118.286 66.1568 118.374 66.1137L119.633 65.4448C119.677 65.4233 119.699 65.3801 119.721 65.337C119.743 65.2938 119.721 65.2507 119.699 65.2075L119.257 64.4308C119.235 64.3445 119.169 64.3014 119.103 64.3014Z" fill="#1A1A47"/>
<path d="M115.878 73.1908C115.768 73.3203 115.702 73.4066 115.702 73.4066C115.702 73.4066 114.929 72.8456 114.708 72.7809C114.487 72.7378 114.024 72.8672 113.781 72.9104C113.361 72.9967 113.538 72.6515 113.538 72.6515C113.538 72.6515 113.251 72.7378 113.008 72.8456C112.721 72.9535 112.434 73.1908 112.346 73.2124C112.191 73.2555 112.015 73.1693 112.169 72.9535C112.39 72.6299 113.406 71.7238 113.649 71.6159C113.98 71.4649 114.399 71.2491 114.752 71.3786C115.106 71.508 116.254 72.3494 116.254 72.3494C116.276 72.6299 116.033 72.9751 115.878 73.1908Z" fill="#F7B59C"/>
<path d="M115.571 73.4062C115.571 73.4062 119.368 76.6424 122.194 76.966C125.02 77.2896 129.811 72.047 129.811 72.047C129.811 72.047 129.502 69.2424 127.736 69.5875C125.969 69.9327 123.607 74.075 122.569 74.2692C121.554 74.4634 116.211 72.2628 116.211 72.2628C116.211 72.2628 116.056 72.3706 115.88 72.6511C115.681 72.9747 115.571 73.4062 115.571 73.4062Z" fill="#5BD7AF"/>
<path d="M123.982 60.7637C123.077 59.7497 121.752 59.6418 120.715 59.7497C119.368 59.9007 118.176 60.7853 117.8 62.0582C117.624 62.6191 117.602 63.2448 117.867 63.9567C118.706 66.222 119.611 67.4734 120.295 68.099C120.604 68.3795 121.245 67.9911 121.885 67.7754C121.973 67.7538 122.061 67.7754 122.106 67.8617L122.481 68.5305L125.13 68.0127C125.13 68.0127 124.733 67.1929 124.578 66.5241C124.865 66.0926 125.638 62.6191 123.982 60.7637Z" fill="#F7B59C"/>
<path d="M119.191 63.9999C119.478 63.9783 119.765 64.1293 119.876 64.3882C120.074 64.8413 120.383 65.4885 120.604 65.6827C120.648 65.7258 120.759 65.7474 120.869 65.6827C120.98 65.6395 121.002 65.5317 120.98 65.4885C120.957 65.2944 120.803 64.8629 120.715 64.5824C120.582 64.2156 120.737 63.8273 121.178 63.741C121.267 63.7194 121.465 63.741 121.554 63.7626C122.26 63.9783 121.774 65.057 121.752 65.618C121.752 66.0063 122.238 66.934 122.437 67.0203C123.143 67.3008 124.203 67.0419 124.777 66.3515C125.351 65.6611 125.461 63.3742 125.152 62.015C124.843 60.6558 123.717 59.8791 123.342 59.7928C123.165 59.7497 123.011 59.7497 122.9 59.7497C122.79 59.7713 122.68 59.7281 122.591 59.6418C122.216 59.3182 121.112 58.6062 119.346 59.3398C117.138 60.2675 116.763 62.2523 116.807 63.1585C116.829 63.741 117.292 63.6978 117.624 63.59C117.8 63.5252 117.999 63.59 118.131 63.6978C118.374 63.8704 118.683 64.043 119.191 63.9999Z" fill="#0B0B3A"/>
<path d="M121.995 68.8968C121.995 68.8968 121.752 68.6379 121.84 68.4869C121.95 68.2927 123.143 67.365 124.534 67.4082C124.754 67.4082 125.019 67.4082 125.284 67.9691C125.549 68.5301 125.615 68.8968 125.615 68.8968H121.995Z" fill="#5BD7AF"/>
<path d="M128.221 85.4017C128.133 85.4233 128.044 85.4449 127.956 85.4664C126.764 85.6822 124.843 85.7037 124.843 85.7037C121.045 85.639 119.345 83.6326 118.727 82.597C118.506 82.2302 118.418 81.9929 118.418 81.9929C118.639 81.8851 119.39 81.2163 119.677 80.2885C119.964 79.3608 119.655 77.1602 119.169 76.3404C118.904 75.8873 118.109 74.9381 117.601 73.9672C117.182 73.169 116.983 72.306 117.425 71.6803C118.551 70.0838 120.295 69.2208 120.295 69.2208C120.295 69.2208 123.54 67.9479 126.278 68.25C128.022 68.4226 129.59 69.2424 130.009 71.3783C131.091 76.9013 128.221 85.4017 128.221 85.4017Z" fill="#93FFDC"/>
<path d="M120.251 96.3616C120.251 96.3616 119.986 96.6638 119.566 96.7286C119.102 96.7933 118.771 96.5775 118.771 96.5775L118.55 95.9731L120.008 95.6709L120.251 96.3616Z" fill="#F7B59C"/>
<path d="M112.613 97.0957C112.613 97.0957 112.304 97.3547 111.885 97.3547C111.421 97.3547 111.134 97.0957 111.134 97.0957L111.024 96.4697H112.525L112.613 97.0957Z" fill="#F7B59C"/>
<path d="M120.251 95.6929C120.163 95.736 119.854 95.8439 119.766 95.887C119.214 96.0596 118.441 96.2322 118.441 96.2322C117.182 93.5786 115.151 86.912 115.151 86.912C114.864 85.7254 115.725 85.2508 116.476 85.2076C116.741 85.1861 116.984 85.2292 117.16 85.3155C117.889 85.6176 118.949 87.6024 118.949 87.6024C118.949 87.6024 119.28 88.2928 119.611 89.7167C119.92 91.1191 120.251 95.6929 120.251 95.6929Z" fill="#1A1A47"/>
<path d="M123.1 85.5097C123.1 86.1785 122.901 87.2572 121.885 87.5593C120.362 88.0123 119.214 87.7535 117.448 87.4514C115.968 87.1925 113.606 86.3511 112.877 86.0922C112.789 86.0491 112.811 86.1138 112.811 86.2001C113.142 87.8182 112.59 96.599 112.59 96.599C112.59 96.599 112.347 96.6637 112.083 96.7069C111.994 96.7284 111.884 96.7284 111.796 96.7284C111.42 96.7284 110.692 96.6637 110.692 96.6637C110.692 96.6637 109.323 90.4934 109.102 87.0199C108.881 83.568 109.102 83.0286 110.78 82.4677C112.657 81.842 118.397 81.9931 118.397 81.9931C118.419 82.0578 118.816 83.1365 120.009 84.1074C120.759 84.6899 121.731 85.2292 123.1 85.5097Z" fill="#3D3D72"/>
<path d="M124.822 89.0259V97.9146C124.822 98.2382 124.557 98.4971 124.226 98.4971C124.093 98.4971 123.983 98.4539 123.873 98.3892C123.718 98.2813 123.63 98.1087 123.63 97.9361V89.0474H124.822V89.0259Z" fill="#94C1F7"/>
<path d="M124.821 89.4142V97.8713C124.821 98.1518 124.601 98.4323 124.314 98.4538C124.181 98.4754 124.049 98.4538 123.938 98.3891C123.916 98.346 123.894 98.3244 123.872 98.2813V89.6299C123.872 89.5005 123.982 89.3926 124.115 89.3926H124.821V89.4142Z" fill="#B5D0FF"/>
<path d="M125.572 88.724C125.572 88.7672 125.572 88.8103 125.55 88.8535C125.527 88.9398 125.483 89.0262 125.417 89.0693C125.329 89.1557 125.196 89.2204 125.064 89.2204H123.32C123.033 89.2204 122.812 89.0046 122.812 88.724C122.812 88.5945 122.878 88.465 122.966 88.3786C123.055 88.2923 123.187 88.2275 123.32 88.2275H125.064C125.351 88.2275 125.572 88.465 125.572 88.724Z" fill="#94C1F7"/>
<path d="M125.549 88.8531C125.527 88.9395 125.483 89.0258 125.417 89.069C125.329 89.1553 125.196 89.2201 125.064 89.2201H123.386C123.408 89.1337 123.452 89.0474 123.518 88.9826C123.607 88.8963 123.739 88.8315 123.872 88.8315H125.549V88.8531Z" fill="#B5D0FF"/>
<path d="M131.798 73.2337C131.798 73.2337 131.798 73.2553 131.798 73.2337C131.798 73.2984 131.776 73.3631 131.754 73.4063C131.621 73.9888 131.114 75.1107 131.047 76.8151C131.003 77.8506 131.047 80.6338 131.003 82.3166C131.003 82.5755 130.981 82.7912 130.981 82.9854C130.893 84.474 130.363 86.6746 128.795 87.7749C127.184 88.9615 123.938 88.7458 121.973 88.7026C120.008 88.6595 115.129 87.7965 114.754 87.0845C114.665 86.9335 114.643 86.7825 114.665 86.6746C114.687 86.5668 114.732 86.4805 114.82 86.3942C114.996 86.2216 115.283 86.1568 115.548 86.2216C116.343 86.4157 118.706 86.8688 119.765 85.5528C121.046 83.9562 120.891 82.1224 121.443 78.239C121.973 74.5713 123.143 73.4494 125.086 72.7159C127.162 71.9392 130.495 72.2628 131.334 72.5217C131.599 72.608 131.82 72.9101 131.798 73.2337Z" fill="#CFE3FF"/>
<path d="M131.048 98.9936C131.048 99.1015 130.96 99.2093 130.827 99.2093H117.647C117.536 99.2093 117.426 99.123 117.426 98.9936C117.426 98.8857 117.492 98.7994 117.602 98.7778L124.226 97.7207L125.882 97.9796L130.827 98.7563C130.96 98.7994 131.048 98.9073 131.048 98.9936Z" fill="#B5D0FF"/>
<path d="M111.11 97.0947C111.11 97.0947 111.508 97.2457 111.861 97.2457C112.303 97.2457 112.612 97.0947 112.612 97.0947C112.612 97.0947 113.385 98.044 112.965 99.1227C112.943 99.1874 112.877 99.209 112.833 99.209H107.688C107.622 99.209 107.578 99.1659 107.578 99.1012C107.578 98.9717 107.622 98.7775 107.931 98.6912C108.417 98.5402 108.903 98.4755 109.256 98.346C109.631 98.2166 110.161 97.6988 110.448 97.5909C110.846 97.4615 111.11 97.0947 111.11 97.0947Z" fill="#1A1A47"/>
<path d="M118.772 96.599C118.772 96.599 119.191 96.6853 119.545 96.6422C119.964 96.5775 120.251 96.3833 120.251 96.3833C120.251 96.3833 121.156 97.2031 120.935 98.325C120.913 98.3897 120.869 98.4329 120.803 98.4329C120.803 98.4329 118.087 99.037 117.16 99.1664C116.608 99.2527 115.703 99.2527 115.703 99.2527C115.637 99.2527 115.57 99.2096 115.57 99.1664C115.548 99.037 115.571 98.8428 115.858 98.6918C116.299 98.476 116.785 98.325 117.116 98.1308C117.469 97.9583 117.889 97.3542 118.176 97.2031C118.573 96.9874 118.772 96.599 118.772 96.599Z" fill="#1A1A47"/>
<path d="M108.462 77.6993C108.462 77.6993 107.932 77.4836 107.667 77.3973C107.557 77.3541 107.446 77.3326 107.38 77.311C107.27 77.2894 107.137 77.2679 107.027 77.2679H104.024C103.936 77.2679 103.87 77.2031 103.87 77.1168C103.87 77.009 103.936 76.9011 104.024 76.8364L104.356 76.6422L105.327 76.0381C105.813 75.736 106.144 75.7145 106.718 75.7576C106.828 75.7576 107.226 75.9302 107.314 75.9518C107.866 76.1244 107.998 76.2107 108.374 76.3401C108.528 76.3833 108.617 76.4264 108.683 76.4264C108.793 76.448 108.815 76.448 108.815 76.448C108.859 77.2031 108.462 77.6993 108.462 77.6993Z" fill="#F7B59C"/>
<path d="M120.185 70.688C119.788 70.4507 118.596 69.8035 117.072 72.1335C115.549 74.4636 115.063 75.456 114.622 76.1895C114.092 76.5132 108.683 76.3621 108.683 76.3621C108.683 76.3621 108.351 77.0741 108.285 77.6782C108.285 77.6782 111.155 79.0805 114.953 79.3394C117.889 79.3394 120.936 73.7085 121.068 73.0181C121.245 72.3061 121.135 71.249 120.185 70.688Z" fill="#93FFDC"/>
<path d="M117.713 65.7473C117.691 65.7473 117.646 65.7257 117.646 65.7041C117.624 65.661 117.646 65.6178 117.691 65.5963L120.671 64.1076C121.002 63.935 121.709 63.5898 122.217 64.3234C122.239 64.3665 122.239 64.4097 122.195 64.4312C122.15 64.4528 122.106 64.4528 122.084 64.4097C121.687 63.8272 121.201 63.9998 120.759 64.2371L117.779 65.7257C117.735 65.7473 117.713 65.7473 117.713 65.7473Z" fill="#1A1A47"/>
<path d="M120.649 64.2588L121.047 65.4886C121.047 65.4886 121.356 65.769 121.643 65.4454C121.93 65.1218 122.195 63.9568 121.643 63.7626C121.113 63.5685 120.782 63.8489 120.649 64.2588Z" fill="#F7B59C"/>
<path opacity="0.5" d="M131.665 72.802C131.577 72.6726 131.444 72.5647 131.268 72.5215C130.429 72.2842 127.095 71.939 125.02 72.7157C123.077 73.4492 121.907 74.5711 121.377 78.2388C120.825 82.1222 120.979 83.956 119.699 85.5526C118.639 86.8686 116.277 86.4155 115.482 86.2214C115.239 86.1566 114.952 86.2214 114.753 86.394C114.687 86.4587 114.621 86.5666 114.599 86.6744C114.577 86.7823 114.599 86.9333 114.687 87.0843C115.084 87.7963 119.942 88.6593 121.907 88.7024C123.871 88.7456 127.117 88.9397 128.729 87.7747C130.318 86.6529 130.826 84.4738 130.914 82.9852C130.937 82.791 130.937 82.5753 130.937 82.3164C130.892 82.4458 129.811 85.4447 125.991 84.7543C122.304 84.0855 121.973 80.1373 122.105 78.7997C122.127 78.6487 122.149 78.5193 122.149 78.3898C122.194 78.1525 122.392 77.0953 122.635 76.1892C122.812 75.5851 123.231 74.6574 124.092 73.9886C124.203 73.9023 124.313 73.8376 124.446 73.7729C124.49 73.7513 124.534 73.7297 124.556 73.7081C124.622 73.6866 124.666 73.6434 124.733 73.6218C124.799 73.6003 124.865 73.5571 124.931 73.5355C124.975 73.514 125.02 73.4924 125.086 73.4708C128.088 72.3058 131.312 73.0609 131.511 73.1041C131.753 73.1688 131.687 72.8667 131.665 72.802Z" fill="#94C1F7"/>
<path d="M49.9746 101.281L50.3058 100.418C50.3058 100.418 55.5163 100.655 57.989 102.166L53.2864 102.252L49.9746 101.281Z" fill="#E1EFFF"/>
<path d="M66.0039 101.281L65.6728 100.418C65.6728 100.418 60.4623 100.655 57.9896 102.166L62.6922 102.252L66.0039 101.281Z" fill="#E1EFFF"/>
<path d="M57.9891 102.187C55.1631 101.108 49.6877 101.044 49.6877 101.044V102.856H56.7748H59.2034H66.2905V101.044C66.2684 101.022 60.8151 101.108 57.9891 102.187Z" fill="#CCE1FF"/>
<path d="M66.909 102.338H49.0478V102.964H66.909V102.338Z" fill="#7878FF"/>
<path d="M103.205 36.3632L104.773 35.3708C105.104 35.565 105.479 35.6944 105.899 35.6944H113.472C114.642 35.6944 115.569 34.7667 115.569 33.6448V31.2932C115.569 30.1498 114.62 29.2437 113.472 29.2437H105.899C104.729 29.2437 103.801 30.1714 103.801 31.2932V33.6233C103.801 34.0548 103.934 34.4431 104.155 34.7667L103.205 36.3632ZM105.899 34.3568C105.899 34.2489 105.987 34.1626 106.098 34.1626H113.383C113.494 34.1626 113.582 34.2489 113.582 34.3568C113.582 34.4647 113.494 34.551 113.383 34.551H106.098C105.987 34.551 105.899 34.4647 105.899 34.3568ZM113.383 33.5801H109.542C109.431 33.5801 109.343 33.4938 109.343 33.386C109.343 33.2781 109.431 33.1918 109.542 33.1918H113.383C113.494 33.1918 113.582 33.2781 113.582 33.386C113.582 33.4938 113.494 33.5801 113.383 33.5801ZM105.899 32.4367C105.899 32.3288 105.987 32.2425 106.098 32.2425H113.383C113.494 32.2425 113.582 32.3288 113.582 32.4367C113.582 32.5446 113.494 32.6308 113.383 32.6308H106.098C105.987 32.6093 105.899 32.5446 105.899 32.4367ZM113.383 31.66H107.996C107.886 31.66 107.798 31.5737 107.798 31.4658C107.798 31.358 107.886 31.2717 107.996 31.2717H113.383C113.494 31.2717 113.582 31.358 113.582 31.4658C113.582 31.5737 113.494 31.66 113.383 31.66ZM105.899 30.5165C105.899 30.4087 105.987 30.3224 106.098 30.3224H113.383C113.494 30.3224 113.582 30.4087 113.582 30.5165C113.582 30.6244 113.494 30.7107 113.383 30.7107H106.098C105.987 30.6891 105.899 30.6028 105.899 30.5165Z" fill="#B5D0FF"/>
<path d="M37.8283 55.0474H36.5036" stroke="#9ACEE2" stroke-width="0.7278" stroke-miterlimit="10" stroke-linecap="round"/>
<path d="M35.4014 55.0483H26.8793C26.3936 55.0483 25.9962 55.4367 25.9962 55.9113V88.8556C25.9962 88.9635 26.0182 89.0713 26.0624 89.1576" stroke="#9ACEE2" stroke-width="0.7278" stroke-miterlimit="10" stroke-linecap="round" stroke-dasharray="8.63 8.63"/>
<path d="M26.369 89.5879C26.5015 89.6742 26.6781 89.739 26.8768 89.739H27.6717" stroke="#9ACEE2" stroke-width="0.7278" stroke-miterlimit="10" stroke-linecap="round"/>
<path d="M114.728 44.0015H116.053" stroke="#9ACEE2" stroke-width="0.7278" stroke-miterlimit="10" stroke-linecap="round"/>
<path d="M117.134 44.0015H135.658C136.519 44.0015 137.226 44.6919 137.226 45.5333V72.2425C137.226 73.0839 136.519 73.7743 135.658 73.7743H135.128" stroke="#9ACEE2" stroke-width="0.7278" stroke-miterlimit="10" stroke-linecap="round" stroke-dasharray="8.61 8.61"/>
<path d="M134.597 73.7744H133.272" stroke="#9ACEE2" stroke-width="0.7278" stroke-miterlimit="10" stroke-linecap="round"/>
<path d="M57.2798 23.6348H69.8864C71.2994 23.6348 72.4475 24.7566 72.4475 26.1374V37.9171" stroke="#9ACEE2" stroke-width="0.7278" stroke-miterlimit="10" stroke-linecap="round" stroke-dasharray="8.73 8.73"/>
<path d="M95.8307 75.9093C95.8307 75.9093 94.3735 75.0679 94.0424 73.4282C94.0424 73.4282 95.4112 73.7087 96.1177 75.9093" fill="white"/>
<path d="M96.4036 75.9093C96.4036 75.9093 97.8608 75.0679 98.192 73.4282C98.192 73.4282 96.8231 73.7087 96.1166 75.9093" fill="white"/>
<path d="M95.964 75.7793C95.964 75.7793 94.9043 74.4849 95.2134 72.8452C95.2134 72.8452 96.4056 73.6003 96.229 75.8872" fill="white"/>
<path d="M96.3161 75.7794C96.3161 75.7794 97.3317 74.4634 96.9785 72.8237C96.9785 72.8237 95.8083 73.6004 96.0291 75.8873" fill="white"/>
<path d="M97.6859 75.564H94.4846V78.1745H97.6859V75.564Z" fill="#CFE3FF"/>
<path opacity="0.5" d="M95.434 75.564H94.4846V78.1745H95.434V75.564Z" fill="#94C1F7"/>
<g opacity="0.5">
<g opacity="0.5">
<g opacity="0.5">
<path opacity="0.5" d="M127.095 59.9445L125.638 60.6996L126.367 58.8657" fill="#389FE5"/>
</g>
<path opacity="0.5" d="M131.577 57.6143C131.577 59.2539 130.208 60.5915 128.53 60.5915C126.852 60.5915 125.484 59.2539 125.484 57.6143C125.484 55.9746 126.852 54.637 128.53 54.637C130.208 54.6154 131.577 55.953 131.577 57.6143Z" fill="#389FE5"/>
</g>
</g>
<path d="M127.228 57.3123L128.155 58.4558L129.811 56.7729" stroke="white" stroke-width="1.00444" stroke-miterlimit="10" stroke-linecap="round" stroke-linejoin="round"/>
<g opacity="0.5">
<g opacity="0.5">
<g opacity="0.5">
<path opacity="0.5" d="M32.4456 69.7394L33.8807 70.4945L33.1521 68.6606" fill="#389FE5"/>
</g>
<path opacity="0.5" d="M27.9641 67.4089C27.9641 69.0486 29.333 70.3862 31.0109 70.3862C32.6889 70.3862 34.0577 69.0486 34.0577 67.4089C34.0577 65.7693 32.6889 64.4316 31.0109 64.4316C29.333 64.4316 27.9641 65.7477 27.9641 67.4089Z" fill="#389FE5"/>
</g>
</g>
<path d="M29.7316 67.1288L30.6589 68.2507L32.2927 66.5679" stroke="white" stroke-width="1.00444" stroke-miterlimit="10" stroke-linecap="round" stroke-linejoin="round"/>
<path d="M129.634 41.8642H117.8C117.579 41.8642 117.403 41.6916 117.403 41.4759V29.7609C117.403 29.5452 117.579 29.3726 117.8 29.3726H129.656C129.877 29.3726 130.053 29.5452 130.053 29.7609V41.4974C130.031 41.7132 129.855 41.8642 129.634 41.8642Z" fill="white"/>
<g opacity="0.5">
<path opacity="0.5" d="M127.004 34.9816C127.004 35.4994 126.894 36.0172 126.673 36.4702C126.563 36.686 126.452 36.9017 126.298 37.0959C126.187 37.2253 126.099 37.3548 125.967 37.4626C125.856 37.5705 125.768 37.6568 125.658 37.7431C125.503 37.8726 125.326 37.9804 125.128 38.0883C124.973 38.1746 124.841 38.2393 124.686 38.3041C124.333 38.4335 123.958 38.5198 123.582 38.5414C123.516 38.5414 123.428 38.5414 123.361 38.5414C122.478 38.5414 121.683 38.2393 121.065 37.7431C120.248 37.0959 119.719 36.0819 119.719 34.9816C119.719 34.4638 119.829 33.9892 120.028 33.5577C120.491 32.5437 121.396 31.767 122.522 31.5297C122.522 31.5297 122.544 31.5297 122.567 31.5297C122.677 31.5081 122.809 31.4865 122.92 31.4649C123.074 31.4434 123.229 31.4434 123.361 31.4434C124.752 31.4434 125.945 32.1985 126.563 33.3203C126.607 33.3851 126.651 33.4714 126.673 33.5577C126.894 33.9676 127.004 34.4638 127.004 34.9816Z" fill="#9999F1"/>
<g opacity="0.5">
<g opacity="0.5">
<path opacity="0.5" d="M124.266 38.1334C124.288 38.306 124.067 38.4139 123.891 38.457C123.78 38.4786 123.67 38.5002 123.582 38.5218C123.515 38.5218 123.427 38.5218 123.361 38.5218C122.5 38.5218 121.683 38.2197 121.065 37.7235C121.065 37.7019 121.065 37.6588 121.065 37.6372C121.065 37.5078 121.109 37.3783 121.153 37.2273C121.175 37.1194 121.197 37.0115 121.197 36.8821C121.197 36.8389 121.197 36.7958 121.175 36.7526C121.153 36.7311 121.109 36.7095 121.087 36.7095C120.888 36.6232 120.733 36.3643 120.822 36.1701C120.998 35.7386 121.617 35.8897 121.219 34.8109C121.131 34.5736 121.308 34.5305 121.308 34.4657C121.263 34.3147 120.733 34.3579 120.579 34.3363C120.491 34.3147 120.38 34.3147 120.314 34.25C120.27 34.2069 120.248 34.1637 120.226 34.099C120.137 33.9048 120.093 33.7106 120.071 33.4949C120.535 32.4809 121.462 31.7042 122.61 31.4453L122.632 31.5532C122.588 31.9631 122.566 32.373 122.544 32.7614C122.544 32.8261 122.544 32.9124 122.522 32.9771C122.456 33.1281 122.279 33.1928 122.124 33.1713C122.058 33.1713 121.992 33.1497 121.948 33.1713C121.859 33.2144 121.882 33.3439 121.882 33.4302C121.859 33.5812 121.705 33.7106 121.617 33.8401C121.506 33.9695 121.484 34.1853 121.617 34.2716C121.661 34.2932 121.705 34.2931 121.727 34.3363C121.749 34.3794 121.727 34.4442 121.661 34.4873C121.617 34.5089 121.55 34.5305 121.528 34.5736C121.462 34.6599 121.506 34.7894 121.595 34.8757C121.683 34.9404 121.793 35.0051 121.859 35.0914C121.948 35.1993 121.97 35.3503 122.058 35.4582C122.301 35.6955 122.787 35.4366 123.03 35.6955C123.162 35.8249 123.162 36.0191 123.272 36.1486C123.339 36.2349 123.449 36.278 123.537 36.3427C123.736 36.4938 123.891 36.7311 123.891 36.9684C123.913 37.2273 123.802 37.5509 124.001 37.7451C124.023 37.9177 124.244 37.9608 124.266 38.1334Z" fill="#81A8CC"/>
</g>
<g opacity="0.5">
<path opacity="0.5" d="M126.562 33.2775C126.495 33.2775 126.429 33.2775 126.385 33.299C126.363 33.299 126.341 33.3206 126.319 33.3206C126.297 33.3422 126.297 33.3853 126.297 33.4285C126.297 33.5364 126.252 33.6658 126.164 33.7305C126.142 33.7521 126.12 33.7521 126.098 33.7737C126.032 33.7953 125.988 33.709 125.965 33.6442C125.899 33.4716 125.833 33.299 125.767 33.1264C125.745 33.0833 125.723 33.0186 125.678 32.9754C125.59 32.9107 125.48 32.9323 125.391 32.8891C125.281 32.8244 125.237 32.6518 125.104 32.6734C125.016 32.695 125.016 32.8244 125.038 32.9323C125.06 33.0186 125.104 33.148 125.038 33.2127C124.95 33.2775 124.839 33.2127 124.773 33.1264C124.707 33.0401 124.663 32.9323 124.552 32.8891C124.42 32.846 124.265 32.9538 124.177 33.0833C124.089 33.2127 124.023 33.3638 123.89 33.4069C123.824 33.4285 123.736 33.4285 123.669 33.4716C123.537 33.5364 123.537 33.7305 123.581 33.8815C123.625 34.0326 123.691 34.1836 123.625 34.313C123.603 34.3346 123.603 34.3562 123.559 34.3778C123.493 34.3993 123.449 34.3346 123.404 34.2915C123.184 34.011 122.985 33.7305 122.83 33.4069C122.808 33.3422 122.764 33.2775 122.786 33.2127C122.786 33.1696 122.808 33.1264 122.83 33.0833C122.874 32.9323 122.83 32.7812 122.852 32.6302C122.874 32.3713 123.095 32.134 123.007 31.8967C122.985 31.8104 122.919 31.7457 122.874 31.6594C122.83 31.5731 122.83 31.4652 122.897 31.4005C123.051 31.3789 123.206 31.3789 123.338 31.3789C124.751 31.4005 125.943 32.1772 126.562 33.2775Z" fill="#81A8CC"/>
</g>
<g opacity="0.5">
<path opacity="0.5" d="M127.003 34.9817C127.003 35.4995 126.892 36.0173 126.671 36.4704C126.561 36.6861 126.451 36.9018 126.296 37.096C126.296 37.0744 126.296 37.0529 126.296 37.0313C126.296 36.945 126.296 36.8587 126.34 36.7724C126.362 36.7292 126.406 36.6861 126.429 36.6429C126.495 36.5135 126.473 36.3841 126.473 36.233C126.473 36.1683 126.451 36.082 126.406 36.0173C126.362 35.9741 126.318 35.9741 126.296 35.931C126.208 35.8447 126.252 35.7152 126.252 35.6074C126.274 35.4995 126.252 35.3485 126.164 35.3053C126.031 35.4779 125.899 35.6505 125.744 35.78C125.766 35.6505 125.612 35.5642 125.501 35.5858C125.391 35.6289 125.325 35.7584 125.325 35.8663C125.214 35.8663 125.192 35.7152 125.214 35.6289C125.236 35.4564 125.258 35.2838 125.28 35.1112C125.17 35.068 125.082 35.2406 124.949 35.2622C124.839 35.2838 124.751 35.1759 124.729 35.0896C124.706 34.9817 124.773 34.8954 124.817 34.7875C124.861 34.6797 124.927 34.5718 124.971 34.4639C125.038 34.3129 125.126 34.1619 125.258 34.0972C125.435 34.0109 125.634 34.0756 125.832 34.1187C126.031 34.1619 126.252 34.1835 126.384 34.054C126.473 33.9677 126.495 33.8598 126.517 33.752C126.539 33.6657 126.561 33.5578 126.649 33.5146C126.892 33.9677 127.003 34.4639 127.003 34.9817Z" fill="#81A8CC"/>
</g>
</g>
<path opacity="0.3" d="M126.144 37.29C126.099 37.3547 126.033 37.3978 125.989 37.4626C125.879 37.5704 125.79 37.6567 125.68 37.743C125.525 37.8725 125.349 37.9803 125.15 38.0882C124.996 38.1745 124.863 38.2392 124.708 38.304C124.355 38.4334 123.98 38.5197 123.605 38.5413C123.538 38.5413 123.45 38.5413 123.384 38.5413C122.501 38.5413 121.706 38.2392 121.088 37.743C120.271 37.0958 119.741 36.0818 119.741 34.9815C119.741 34.4637 119.851 33.9891 120.05 33.5576C120.514 32.5436 121.419 31.7669 122.545 31.5296C122.545 31.5296 122.567 31.5296 122.589 31.5296C122.699 31.508 122.832 31.4864 122.942 31.4648H122.964C122.611 31.7885 122.324 32.1768 122.125 32.6299C121.927 33.0614 121.838 33.5144 121.838 34.0106C121.838 35.0894 122.346 36.0386 123.141 36.6643C123.737 37.1389 124.51 37.4194 125.349 37.4194C125.415 37.4194 125.481 37.4194 125.57 37.4194C125.724 37.3763 125.923 37.3331 126.144 37.29Z" fill="#9999F1"/>
<path opacity="0.5" d="M127.846 34.9607C127.846 33.6446 127.249 32.4149 126.212 31.5735C125.417 30.9262 124.401 30.5811 123.364 30.5811C123.231 30.5811 123.121 30.6889 123.121 30.8184C123.121 30.9478 123.231 31.0557 123.364 31.0557C124.291 31.0557 125.196 31.3793 125.925 31.9402C126.852 32.6954 127.382 33.7957 127.382 34.9823C127.382 37.1397 125.572 38.9088 123.364 38.9088C122.149 38.9088 121.023 38.391 120.251 37.4633C120.162 37.3555 120.03 37.3555 119.92 37.4417C119.875 37.4849 119.831 37.528 119.831 37.5928C119.831 37.6575 119.853 37.7222 119.875 37.7654C120.67 38.7146 121.818 39.2972 123.077 39.3619V40.117H121.73C121.575 40.117 121.443 40.2464 121.443 40.3975C121.443 40.5485 121.575 40.6779 121.73 40.6779H125.02C125.174 40.6779 125.307 40.5485 125.307 40.3975C125.307 40.2464 125.174 40.117 125.02 40.117H123.673V39.3403C125.991 39.1677 127.846 37.2692 127.846 34.9607Z" fill="#7878FF"/>
</g>
<path d="M59.7356 90.2346C59.824 90.8818 59.3382 91.4859 58.6759 91.5722C58.0135 91.6585 57.3954 91.1839 57.307 90.5366C57.2187 89.8894 57.7044 89.2853 58.3668 89.199C59.0291 89.1127 59.6473 89.5658 59.7356 90.2346Z" fill="#9999F1"/>
<path d="M57.9686 90.5152L58.5206 90.9038L59.0504 89.9756" stroke="white" stroke-width="0.768848" stroke-miterlimit="10" stroke-linecap="round" stroke-linejoin="round"/>
<path d="M63.0244 27.0212C63.2452 27.6468 62.892 28.3372 62.2296 28.5314C61.5894 28.7471 60.8829 28.4019 60.6841 27.7547C60.4634 27.129 60.8166 26.4386 61.479 26.2445C62.1192 26.0503 62.8257 26.3955 63.0244 27.0212Z" fill="#9999F1"/>
<path d="M61.369 27.626L61.9871 27.9066L62.3183 26.8921" stroke="white" stroke-width="0.768848" stroke-miterlimit="10" stroke-linecap="round" stroke-linejoin="round"/>
<path d="M129.171 49.2865C129.105 50.3005 128.2 51.0556 127.162 50.9909C126.125 50.9261 125.352 50.0416 125.418 49.0276C125.484 48.0136 126.39 47.2585 127.427 47.3232C128.465 47.3879 129.238 48.2725 129.171 49.2865Z" fill="#0ABCE2"/>
<path d="M126.456 49.1787L127.141 49.9338L128.223 48.7041" stroke="white" stroke-width="1.17576" stroke-miterlimit="10" stroke-linecap="round" stroke-linejoin="round"/>
<path d="M123.387 49.0924C123.387 49.3298 123.188 49.5241 122.945 49.5241C122.702 49.5241 122.503 49.3298 122.503 49.0924C122.503 48.8549 122.702 48.6607 122.945 48.6607C123.188 48.6391 123.387 48.8549 123.387 49.0924Z" fill="#9999F1"/>
<path opacity="0.3" d="M108.176 18.6939C108.176 18.9313 107.977 19.1256 107.734 19.1256C107.491 19.1256 107.293 18.9313 107.293 18.6939C107.293 18.4565 107.491 18.2622 107.734 18.2622C107.977 18.2622 108.176 18.4565 108.176 18.6939Z" fill="#9999F1"/>
<path d="M34.5224 58.9947C34.5224 59.383 34.1912 59.7066 33.7938 59.7066C33.3964 59.7066 33.0652 59.383 33.0652 58.9947C33.0652 58.6063 33.3964 58.2827 33.7938 58.2827C34.1912 58.2827 34.5224 58.6063 34.5224 58.9947Z" fill="#9999F1"/>
<path opacity="0.3" d="M144.207 66.136C144.207 66.7401 143.699 67.2148 143.103 67.2148C142.485 67.2148 141.999 66.7186 141.999 66.136C141.999 65.532 142.507 65.0573 143.103 65.0573C143.699 65.0357 144.207 65.532 144.207 66.136Z" fill="#9999F1"/>
<path opacity="0.3" d="M22.8658 51.1417C22.8658 51.7458 22.358 52.2205 21.7619 52.2205C21.1437 52.2205 20.658 51.7242 20.658 51.1417C20.658 50.5376 21.1658 50.063 21.7619 50.063C22.358 50.063 22.8658 50.5592 22.8658 51.1417Z" fill="#9999F1"/>
<path opacity="0.3" d="M135.087 75.9092C135.087 76.2976 134.756 76.6212 134.359 76.6212C133.961 76.6212 133.63 76.2976 133.63 75.9092C133.63 75.5209 133.961 75.1973 134.359 75.1973C134.756 75.1973 135.087 75.5209 135.087 75.9092Z" fill="#9999F1"/>
<path opacity="0.3" d="M78.766 21.2613C78.766 21.6496 78.4348 21.9732 78.0374 21.9732C77.64 21.9732 77.3088 21.6496 77.3088 21.2613C77.3088 20.8729 77.64 20.5493 78.0374 20.5493C78.4569 20.5493 78.766 20.8729 78.766 21.2613Z" fill="#9999F1"/>
<path opacity="0.2" d="M92.2125 17.7227C92.2125 18.111 91.8813 18.4347 91.4839 18.4347C91.0865 18.4347 90.7554 18.111 90.7554 17.7227C90.7554 17.3344 91.0865 17.0107 91.4839 17.0107C91.8813 17.0107 92.2125 17.3344 92.2125 17.7227Z" fill="#9999F1"/>
<path d="M20.8787 41.606C20.7904 41.606 20.7241 41.5413 20.7241 41.455V40.4625C20.7241 40.3762 20.7904 40.3115 20.8787 40.3115C20.9671 40.3115 21.0334 40.3762 21.0334 40.4625V41.455C21.0113 41.5413 20.945 41.606 20.8787 41.606Z" fill="#9999F1"/>
<path d="M21.3861 41.1103H20.3706C20.2822 41.1103 20.216 41.0455 20.216 40.9592C20.216 40.8729 20.2822 40.8081 20.3706 40.8081H21.3861C21.4745 40.8081 21.5407 40.8729 21.5407 40.9592C21.5186 41.0455 21.4524 41.1103 21.3861 41.1103Z" fill="#9999F1"/>
<g opacity="0.3">
<g opacity="0.3">
<g opacity="0.3">
<path opacity="0.3" d="M28.8467 16.6225C28.7584 16.6225 28.6921 16.5578 28.6921 16.4715V15.5006C28.6921 15.4143 28.7584 15.3496 28.8467 15.3496C28.9351 15.3496 29.0014 15.4143 29.0014 15.5006V16.4931C29.0014 16.5578 28.9351 16.6225 28.8467 16.6225Z" fill="#9999F1"/>
</g>
<g opacity="0.3">
<path opacity="0.3" d="M29.3542 16.1264H28.3386C28.2503 16.1264 28.184 16.0617 28.184 15.9753C28.184 15.889 28.2503 15.8242 28.3386 15.8242H29.3542C29.4425 15.8242 29.5087 15.889 29.5087 15.9753C29.5087 16.0617 29.4425 16.1264 29.3542 16.1264Z" fill="#9999F1"/>
</g>
</g>
</g>
<path d="M113.474 28.5102C113.385 28.5102 113.319 28.4455 113.319 28.3592V27.3883C113.319 27.302 113.385 27.2373 113.474 27.2373C113.562 27.2373 113.628 27.302 113.628 27.3883V28.3807C113.628 28.467 113.562 28.5102 113.474 28.5102Z" fill="#9999F1"/>
<path d="M113.981 28.0141H112.965C112.877 28.0141 112.811 27.9493 112.811 27.863C112.811 27.7767 112.877 27.7119 112.965 27.7119H113.981C114.069 27.7119 114.136 27.7767 114.136 27.863C114.136 27.9709 114.069 28.0141 113.981 28.0141Z" fill="#9999F1"/>
<path d="M144.845 81.0005C144.756 81.0005 144.69 80.9358 144.69 80.8495V79.8571C144.69 79.7708 144.756 79.7061 144.845 79.7061C144.933 79.7061 144.999 79.7708 144.999 79.8571V80.8495C144.999 80.9358 144.933 81.0005 144.845 81.0005Z" fill="#9999F1"/>
<path d="M145.352 80.5048H144.336C144.248 80.5048 144.182 80.4401 144.182 80.3537C144.182 80.2674 144.248 80.2026 144.336 80.2026H145.352C145.44 80.2026 145.506 80.2674 145.506 80.3537C145.506 80.4401 145.44 80.5048 145.352 80.5048Z" fill="#9999F1"/>
<path d="M110.911 41.2388V48.8114C110.911 48.9409 110.801 49.0488 110.668 49.0488H103.007C102.875 49.0488 102.764 48.9409 102.764 48.8114V41.2388C102.764 41.1093 102.875 41.0015 103.007 41.0015H110.691C110.801 41.0015 110.911 41.1093 110.911 41.2388Z" fill="white"/>
<path d="M110.912 47.387V48.8109C110.912 48.9404 110.802 49.0483 110.669 49.0483H106.872L107.026 47.387L108.815 45.4453L110.912 47.387Z" fill="#FFE4A7"/>
<path d="M109.851 49.0491H103.007C102.874 49.0491 102.764 48.9413 102.764 48.8118V47.3879L105.435 44.6479L109.851 49.0491Z" fill="#93FFDC"/>
<path d="M109.828 43.1811C109.828 43.6989 109.409 44.1088 108.879 44.1088C108.349 44.1088 107.93 43.6989 107.93 43.1811C107.93 42.6633 108.349 42.2534 108.879 42.2534C109.409 42.2534 109.828 42.6849 109.828 43.1811Z" fill="#F49587"/>
<path d="M110.734 50.3435H102.94C102.852 50.3435 102.764 50.2572 102.764 50.1709V49.8255C102.764 49.7392 102.852 49.6528 102.94 49.6528H110.734C110.822 49.6528 110.911 49.7392 110.911 49.8255V50.1924C110.911 50.2788 110.844 50.3435 110.734 50.3435Z" fill="white"/>
<path d="M110.734 51.5951H102.94C102.852 51.5951 102.764 51.5088 102.764 51.4224V51.0555C102.764 50.9692 102.852 50.8828 102.94 50.8828H110.734C110.822 50.8828 110.911 50.9692 110.911 51.0555V51.4224C110.911 51.5304 110.844 51.5951 110.734 51.5951Z" fill="white"/>
<defs>
<linearGradient id="paint0_linear" x1="85.5949" y1="38.337" x2="85.5949" y2="83.8407" gradientUnits="userSpaceOnUse">
<stop stop-color="white"/>
<stop offset="1" stop-color="white" stop-opacity="0"/>
</linearGradient>
<linearGradient id="paint1_linear" x1="95.3524" y1="38.337" x2="95.3524" y2="83.8407" gradientUnits="userSpaceOnUse">
<stop stop-color="white"/>
<stop offset="1" stop-color="white" stop-opacity="0"/>
</linearGradient>
<linearGradient id="paint2_linear" x1="12.0164" y1="95.478" x2="20.4196" y2="95.478" gradientUnits="userSpaceOnUse">
<stop offset="1.08255e-07" stop-color="#A3B4DD"/>
<stop offset="1" stop-color="#E4EDF8"/>
</linearGradient>
<linearGradient id="paint3_linear" x1="11.3773" y1="91.7469" x2="21.0598" y2="91.7469" gradientUnits="userSpaceOnUse">
<stop offset="1.08255e-07" stop-color="#A3B4DD"/>
<stop offset="1" stop-color="#E4EDF8"/>
</linearGradient>
</defs>
</svg>