<svg version="1.2" xmlns="http://www.w3.org/2000/svg" viewBox="0 0 90 84" width="90" height="84"><style>.a{fill:#000000}</style><path class="a" d="m37.9 38.8h-28v-4.7c4.7-0.6 14.8-1.9 24.2-2.5 1.5 2.5 3.7 5.1 6.7 7.2z"/><path class="a" d="m45 15.9l1.9 5.5 5.3-2.5-2.5 5.2 5.5 2-5.5 1.9 2.5 5.3-5.3-2.5-1.9 5.5-1.9-5.5-5.3 2.5 2.5-5.3-5.5-1.9 5.5-2-2.5-5.2 5.3 2.5z"/><path class="a" d="m55.8 31.6c9.3 0.6 19.5 1.9 24.3 2.5v4.7h-28-3c3-2.1 5.2-4.7 6.7-7.2z"/><path fill-rule="evenodd" class="a" d="m64.7 58.5q0.8 0 1.6 0 0.7 0.1 1.5 0.1 0.8 0.1 1.6 0.2 0.8 0.1 1.6 0.3c5.7 1.1 7.9 3.6 8 9.6 0 2-0.2 4.1-0.8 6.1-1.6 4.9-5.8 8.1-11 8.3-9 0.3-17.5-6.9-18.7-15.9-0.1-0.4-0.2-0.9-0.2-1.3-0.2-1.9-1.4-3-3.3-3-1.9 0-3.2 1.1-3.3 2.9-0.5 8.3-7.7 15.5-14.2 16.9-7.9 1.8-15.4-1.8-16.4-11.3-0.1-1.5-0.2-2.9 0-4.3 0.6-4.8 2.7-7.1 7.4-8 4.3-0.8 8.8-0.6 13.2-0.7 4.5-0.2 9-0.1 13.6-0.1 0 0.1 12.9 0.2 19.4 0.2zm-28.3 0.8c0 0.4 0.3 0.4 0.5 0.5 1.7 0.6 3.4 1.2 4.2 3 0.4 0.8 0.8 0.2 1.1 0q1.7-1.1 3.7-0.8c0.9 0.2 1.8 1.2 2.5 1.1 0.8-0.1 1-1.6 1.9-2 1.2-0.6 2.3-1.1 3.7-1.8z"/><path class="a" d="m52.1 40.7h27.9q-0.3 1-0.9 1.8c-3.3 3.7-7.5 6.4-11.7 8.3-22.2 9.8-42.9 0.9-44.8 0-4.2-1.9-8.4-4.5-11.7-8.3q-0.6-0.8-0.9-1.8h27.9 6.3 1.5c0 0 6.4 0 6.4 0z"/><path class="a" d="m89.4 22.3l-8.6 9.9c-4.4-0.5-14.5-1.8-23.9-2.5 2.2-4.5 2.7-8.4 2.8-8.7 0.1-1.2-0.6-2.3-1.7-2.7-3.2-1.2-9.6-4.8-11.3-5.8-0.5-0.4-1.1-0.7-1.7-0.7q0 0 0 0-0.1 0-0.1 0c-0.6 0-1.2 0.3-1.7 0.7-1.7 1-8.1 4.6-11.3 5.8-1.1 0.4-1.8 1.5-1.7 2.7 0.1 0.3 0.6 4.2 2.8 8.7-9.5 0.7-19.4 2-23.8 2.5l-8.6-9.9c-0.7-1.2-0.8-2.6-0.2-3.9 0.6-1.2 1.8-2.1 3.2-2.3 0.2 0 26.2-6.1 39-14.9q0 0 0 0 0-0.1 0-0.1 0.1 0 0.1 0 0.2-0.1 0.4-0.2 0 0 0 0 0.1-0.1 0.2-0.1 0.1-0.1 0.3-0.2 0.1 0 0.2 0 0.2-0.1 0.4-0.1 0.1 0 0.2 0 0.2-0.1 0.3-0.1 0.2 0 0.3 0 0.1 0 0.3 0 0.1 0 0.3 0.1 0.1 0 0.2 0 0.2 0 0.4 0.1 0.1 0 0.2 0 0.2 0.1 0.3 0.2 0.1 0 0.2 0 0 0.1 0 0.1 0.2 0.1 0.4 0.2 0 0 0.1 0 0 0 0 0.1 0 0 0 0c12.9 8.8 38.8 14.9 39 14.9 1.4 0.2 2.6 1.1 3.2 2.3 0.6 1.3 0.5 2.7-0.2 3.9z"/></svg>